<?xml version="1.0" encoding="UTF-8"?>
<svg id="SLOGAN" xmlns="http://www.w3.org/2000/svg" version="1.1" viewBox="0 0 369.5 206.65">
  <!-- Generator: Adobe Illustrator 30.0.0, SVG Export Plug-In . SVG Version: 2.1.1 Build 123)  -->
  <defs>
    <style>
      .st0 {
        fill: #f15a29;
      }

      .st1 {
        fill: #2c348a;
      }
    </style>
  </defs>
  <g>
    <path class="st0" d="M284.64,109.92c-2.81,0-5.64-.47-8.49-1.4-6.04-2.12-10.58-5.51-13.63-10.17-3.06-4.66-4.58-9.63-4.58-14.93,0-4.77,1.27-9.31,3.8-13.64,2.53-4.32,6.36-7.75,11.49-10.28,3.79-1.68,7.53-2.52,11.25-2.52,4.69,0,9.05,1.17,13.1,3.52,4.05,2.35,7.31,5.51,9.78,9.5,2.47,3.99,3.71,8.42,3.71,13.3s-1.15,9.01-3.46,13.05c-2.3,4.04-5.45,7.31-9.44,9.81-3.99,2.5-8.5,3.75-13.52,3.75ZM284.02,97.74c1.12,0,2.3-.13,3.54-.39,3.71-.97,6.5-2.77,8.38-5.39,1.87-2.63,2.81-5.47,2.81-8.53,0-2.38-.59-4.66-1.75-6.82-1.16-2.16-2.81-3.93-4.95-5.31-2.14-1.38-4.65-2.07-7.53-2.07s-5.46.67-7.59,2.01c-2.14,1.34-3.8,3.08-4.98,5.23-1.18,2.14-1.77,4.37-1.77,6.68,0,2.46.57,4.8,1.71,7.02,1.14,2.22,2.75,4.03,4.83,5.45,2.08,1.42,4.51,2.13,7.28,2.13Z"/>
    <path class="st0" d="M285.7,51.82c-1.55-.09-2.74-1.28-2.66-2.66l1.1-19.63c.08-1.38,1.4-2.44,2.95-2.35,1.55.09,2.74,1.28,2.66,2.66l-1.1,19.63c-.08,1.38-1.4,2.44-2.95,2.35Z"/>
    <path class="st0" d="M298.88,56.86c-1.03-1.16-1.03-2.84,0-3.77l14.66-13.1c1.03-.92,2.71-.73,3.74.42s1.03,2.84,0,3.77l-14.66,13.1c-1.03.92-2.71.73-3.74-.42Z"/>
    <path class="st0" d="M272.47,55.38c-1.16,1.03-2.84,1.03-3.77,0l-13.1-14.66c-.92-1.03-.73-2.71.42-3.74,1.16-1.03,2.84-1.03,3.77,0l13.1,14.66c.92,1.03.73,2.71-.42,3.74Z"/>
    <g>
      <path class="st0" d="M275.68,81.63l17.79-1.3s1.2,8.13-3.05,11.45c0,0-6.52,4.48-11.69,0,0,0-4.83-3.64-3.05-10.15Z"/>
      <path class="st0" d="M276,79.06c-.22,0-.43-.05-.63-.17-.6-.34-.8-1.11-.46-1.7.14-.24,1.44-2.37,3.77-2.83,1.41-.27,2.83.11,4.21,1.16.55.42.65,1.2.24,1.75-.42.55-1.21.65-1.76.23-.8-.61-1.51-.84-2.19-.7-1.23.24-2.09,1.62-2.09,1.64-.23.4-.65.62-1.09.62Z"/>
      <path class="st0" d="M293.38,79.06c-.43,0-.85-.22-1.08-.62h0c-.23-.39-1.07-1.45-2.11-1.65-.68-.13-1.39.1-2.18.7-.55.42-1.34.32-1.76-.23-.42-.55-.32-1.33.24-1.75,1.38-1.05,2.78-1.44,4.21-1.16,2.33.46,3.64,2.59,3.77,2.83.35.6.14,1.36-.46,1.7-.2.11-.41.17-.63.17Z"/>
    </g>
  </g>
  <g>
    <path class="st0" d="M163.36,119.5c-2.12-.08-3.85-.54-5.17-1.4-1.32-.85-2.29-1.97-2.91-3.36-.62-1.39-.93-2.92-.93-4.57,0-1.53.25-3.06.76-4.57.55-1.61,1.23-2.94,2.05-3.97.82-1.04,1.68-1.85,2.59-2.44s1.78-.99,2.62-1.22c.83-.23,1.53-.34,2.1-.34.61,0,1,.09,1.15.26.4.55.59,1.22.59,2.02,0,.38-.05.74-.14,1.1-.13.52-.27.84-.44.97-.16.13-.39.22-.67.25h-.07c-1.35.23-2.42.77-3.2,1.62-.78.84-1.32,1.83-1.64,2.96-.31,1.13-.47,2.23-.47,3.27,0,1.48.21,2.6.64,3.35.38.58.89.97,1.54,1.17.65.21,1.31.31,1.97.31.49,0,.94-.03,1.36-.09.42-.06.75-.12,1-.17.19-.03.31-.05.35-.05.46.1.85.5,1.18,1.23.33.73.49,1.38.49,1.96,0,.28-.04.53-.13.75-.09.22-.23.38-.44.47-.44.17-1.09.3-1.95.37-.86.08-1.61.12-2.25.12Z"/>
    <path class="st0" d="M178.38,120.02c-1.18,0-2.37-.19-3.56-.59-2.53-.89-4.44-2.31-5.72-4.27-1.28-1.95-1.92-4.04-1.92-6.26,0-2,.53-3.91,1.59-5.72,1.06-1.81,2.67-3.25,4.82-4.31,1.59-.7,3.16-1.06,4.72-1.06,1.97,0,3.8.49,5.5,1.48,1.7.99,3.07,2.31,4.1,3.99,1.04,1.67,1.56,3.53,1.56,5.58s-.48,3.78-1.45,5.48c-.97,1.7-2.29,3.07-3.96,4.11-1.67,1.05-3.57,1.57-5.67,1.57ZM178.12,114.91c.47,0,.97-.05,1.49-.16,1.56-.41,2.73-1.16,3.52-2.26.78-1.1,1.18-2.29,1.18-3.58,0-1-.25-1.95-.73-2.86-.49-.9-1.18-1.65-2.07-2.23-.9-.58-1.95-.87-3.16-.87s-2.29.28-3.18.85c-.89.56-1.59,1.29-2.09,2.19-.49.9-.74,1.83-.74,2.8,0,1.03.24,2.01.72,2.94.48.93,1.16,1.69,2.03,2.29.87.6,1.89.89,3.05.89Z"/>
    <path class="st0" d="M192.31,118.94c-.49-.16-.81-.39-.95-.7v-.96c0-.94,0-2.32.01-4.15,0-1.83.02-3.71.03-5.64.02-1.93.03-3.58.05-4.95.02-1.37.03-2.11.05-2.24.08-.25.43-.5,1.06-.75.63-.25,1.32-.46,2.09-.63.76-.17,1.34-.26,1.73-.26.14,0,.24.02.31.05.08.06.55.65,1.42,1.77.86,1.12,1.89,2.44,3.07,3.97s2.27,2.95,3.28,4.27c.02-2.31.03-4.35.05-6.1.02-1.75.03-2.68.05-2.79.08-.3.38-.53.9-.69.52-.16,1.09-.25,1.7-.25s1.16.09,1.65.27c.49.18.76.47.83.86.06.75.1,2.12.12,4.1.02,1.98.02,4.02.02,6.1l-.02,6.85c0,.35-.25.6-.77.75-.51.16-1.07.23-1.69.23-.53,0-1.04-.05-1.53-.15-.49-.1-.83-.23-1.04-.38l-.69-.99c-.5-.72-1.16-1.65-1.96-2.8-.8-1.15-1.62-2.3-2.45-3.47-.83-1.17-1.56-2.15-2.18-2.97-.62-.81-.98-1.22-1.07-1.22h-.02v.05c0,.19,0,.77.02,1.76.03,1.14.06,2.49.08,4.04s.04,2.93.04,4.11-.02,1.99-.07,2.25c-.13.3-.43.52-.91.67-.48.15-1,.22-1.57.22s-1.12-.08-1.62-.23Z"/>
  </g>
  <path class="st1" d="M44.43,105.22c-.5,0-1.03-.25-1.58-.74-.51-.46-1.16-.77-1.96-.93-.81-.17-1.68-.29-2.65-.37-1.15-.04-2.22-.19-3.23-.47-1.01-.27-1.74-.84-2.2-1.7-.09-.5-.16-3.71-.21-9.65-.05-5.93-.07-12.52-.07-19.76s.01-13.82.04-19.73c.02-5.91.08-9.08.17-9.49.14-.25.38-.51.72-.77.34-.27.75-.49,1.21-.65.37-.17.62-.35.79-.56.16-.21.29-.43.38-.68.14-.33.35-.64.65-.93.3-.29.91-.49,1.82-.62,1.28-.17,2.54-.25,3.78-.25,5.04,0,9.83,1.34,14.36,4.03,5.17,3.23,9,7.4,11.48,12.53s3.71,10.51,3.71,16.13c0,5.21-1,10.26-2.99,15.14-1.99,4.88-4.92,9.05-8.76,12.5-3.85,3.45-8.54,5.72-14.09,6.79-.09,0-.16.02-.21.06-.41.08-.8.13-1.17.13ZM47.66,89.71s.09-.02.14-.06c.09-.04.24-.13.44-.28.21-.15.52-.4.93-.78,2.56-2.19,4.47-4.86,5.7-8,1.24-3.14,1.86-6.37,1.86-9.68,0-3.81-.77-7.35-2.3-10.64-1.54-3.29-3.8-5.74-6.77-7.35-.05-.04-.08.2-.1.71-.02.52-.03,1.48-.03,2.89l.14,33.2Z"/>
  <path class="st1" d="M88.15,105.64c-3.58,0-6.44-.24-8.57-.73-.08-.04-.15-.06-.22-.06-.14,0-.27-.04-.38-.12-.11-.08-.21-.26-.3-.55-.09-.28-.17-.76-.24-1.43-.08-.67-.14-1.6-.19-2.79-.05-1.2-.11-2.71-.16-4.56-.06-1.84-.09-4.1-.11-6.77-.02-2.67-.04-5.82-.05-9.45-.02-3.63-.03-7.81-.03-12.55l.06-26.25c.14-.93,1.34-1.58,3.58-1.94,2.24-.36,4.79-.55,7.65-.55,3.11,0,5.98.12,8.6.36,2.62.24,4.08.46,4.37.67.47.65.82,1.52,1.06,2.62.23,1.09.35,2.23.35,3.4,0,1.7-.16,3.04-.49,4.01-.33.97-.81,1.8-1.47,2.49l-11.82.12c0,.57,0,.99.03,1.27.02.28.03.51.03.67,0,.2.01.48.03.82.02.34.03.9.03,1.67s.01,1.89.03,3.34c.02,1.46.03,3.42.03,5.89l6.83.06c.83.08,1.47.8,1.9,2.16.44,1.36.65,2.87.65,4.53s-.21,3.09-.62,4.4c-.42,1.32-1.04,2.01-1.87,2.1l-6.94.06.16,7.17c0,.16-.01.3-.03.4-.02.1-.03.19-.03.27v5.16h8.63c4.34,0,6.46.06,6.34.18.58.36,1.07,1.15,1.47,2.37.4,1.21.6,2.55.6,4.01,0,1.62-.36,3.13-1.06,4.53-.71,1.4-1.91,2.2-3.61,2.4-1.7.12-3.85.25-6.45.39-2.6.14-5.19.21-7.76.21Z"/>
  <path class="st1" d="M137.13,109.28c-.6,0-1.12-.09-1.56-.28-.44-.19-.74-.38-.9-.59-.08-.17-.45-1.02-1.11-2.57-.66-1.55-1.45-3.43-2.37-5.66-.92-2.23-1.86-4.45-2.83-6.68-1-2.39-1.84-4.42-2.52-6.09-.68-1.67-1.06-2.57-1.14-2.69-.04.08-.06.83-.06,2.26v14.5c0,.58-.38,1.09-1.14,1.55-.77.45-1.46.74-2.1.86-1.44.37-2.72.56-3.84.56-2,0-3.5-.38-4.5-1.14-1-.77-1.5-1.37-1.5-1.83l-.12-48.66s.08-.1.12-.19c.08-.12.21-.3.42-.52.2-.23.57-.48,1.11-.74.54-.27,1.33-.55,2.38-.83h.06c.08-.04.15-.08.21-.12.06-.04.11-.11.15-.22.04-.1.06-.26.06-.46.12-.99.34-1.65.66-1.98.36-.33,1.63-.8,3.81-1.42,2.18-.62,4.71-.92,7.59-.92,6.69.25,11.8,2.07,15.34,5.47,3.54,3.4,5.31,7.43,5.31,12.09,0,3.05-.85,6.08-2.56,9.09-1.7,3.01-4.31,5.65-7.83,7.91-.6.37-.9.62-.9.74.04.12.33.85.87,2.17.53,1.32,1.23,2.97,2.07,4.95.92,2.27,1.87,4.57,2.85,6.89.98,2.33,1.81,4.33,2.49,6,.68,1.67,1.02,2.57,1.02,2.69,0,.04-.03.15-.09.34-.06.19-.13.36-.21.52-.68,1.28-1.98,2.43-3.9,3.46-1.92,1.03-3.7,1.55-5.34,1.55ZM125.01,70.95c.12,0,.26-.02.42-.06.12-.04.26-.08.42-.12,2.52-.58,4.77-1.63,6.75-3.15s2.97-3.05,2.97-4.57c0-.95-.4-1.73-1.2-2.35-.8-.62-1.78-1.08-2.94-1.39-1.16-.31-2.26-.46-3.3-.46s-2.18.12-3.54.37v9.09c0,.74,0,1.3.03,1.67.02.37.06.63.12.77.06.15.15.22.27.22Z"/>
  <path class="st1" d="M162.55,89.64c-3.58,0-6.44-.18-8.57-.54-.08-.03-.15-.04-.22-.04-.14,0-.27-.03-.38-.09-.11-.06-.21-.2-.3-.41-.09-.21-.17-.57-.24-1.06-.08-.5-.14-1.19-.19-2.08-.05-.89-.11-2.02-.16-3.39-.06-1.37-.09-3.04-.11-5.03-.02-1.98-.04-4.33-.05-7.02-.02-2.69-.03-5.8-.03-9.32l.06-19.5c.14-.69,1.34-1.17,3.58-1.44,2.24-.27,4.79-.41,7.65-.41,3.11,0,5.98.09,8.6.27,2.63.18,4.08.34,4.37.5.47.48.82,1.13,1.06,1.94.23.81.35,1.65.35,2.53,0,1.26-.16,2.26-.49,2.98-.33.72-.81,1.34-1.47,1.85l-11.82.09c0,.42,0,.74.03.95.02.21.03.38.03.5,0,.15.01.35.03.61.02.26.03.67.03,1.24s.01,1.4.03,2.48c.02,1.08.03,2.54.03,4.38l6.83.05c.83.06,1.47.59,1.9,1.6.44,1.01.65,2.13.65,3.36s-.21,2.29-.62,3.27c-.42.98-1.04,1.5-1.87,1.56l-6.94.04.16,5.32c0,.12-.01.22-.03.29-.02.08-.03.14-.03.2v3.84h8.63c4.34,0,6.46.04,6.34.14.58.27,1.07.86,1.47,1.76.4.9.6,1.89.6,2.98,0,1.2-.36,2.33-1.06,3.36-.71,1.04-1.91,1.63-3.61,1.78-1.7.09-3.85.19-6.45.29-2.6.11-5.19.16-7.76.16Z"/>
  <path class="st1" d="M202.77,89.64c-4.88-.18-8.84-1.25-11.88-3.21-3.04-1.96-5.27-4.54-6.7-7.74-1.42-3.2-2.14-6.71-2.14-10.52,0-3.52.58-7.03,1.74-10.52,1.26-3.7,2.84-6.75,4.72-9.14,1.88-2.39,3.87-4.26,5.97-5.61,2.1-1.35,4.11-2.28,6.02-2.8,1.92-.52,3.53-.78,4.83-.78,1.41,0,2.29.2,2.66.59.9,1.26,1.35,2.8,1.35,4.64,0,.86-.11,1.71-.33,2.54-.29,1.19-.63,1.93-1,2.24-.38.31-.9.5-1.55.57h-.16c-3.11.54-5.56,1.78-7.35,3.72-1.79,1.94-3.05,4.22-3.77,6.82-.72,2.61-1.08,5.12-1.08,7.52,0,3.42.49,5.99,1.47,7.71.86,1.33,2.05,2.23,3.55,2.7,1.5.47,3.01.7,4.53.7,1.12,0,2.16-.07,3.12-.22.96-.14,1.72-.27,2.3-.38.43-.07.7-.11.81-.11,1.05.22,1.95,1.16,2.71,2.83s1.14,3.17,1.14,4.5c0,.65-.1,1.22-.3,1.73-.2.5-.53.86-1,1.08-1.01.39-2.5.68-4.48.86-1.97.18-3.7.27-5.18.27Z"/>
  <path class="st1" d="M245.44,106.03c-.72.01-1.32-.01-1.79-.09-.91-.15-1.76-.44-2.57-.87-.81-.43-1.22-1.14-1.24-2.11l-.44-23.37-9.92.19.18,9.52.11,8.97c.02.94-.59,1.67-1.83,2.2-1.24.53-2.62.81-4.13.84-1.16.02-2.25-.12-3.26-.43-1.02-.31-1.77-.8-2.25-1.48l-.28-.36-.48-25.07c-.08-4.27-.15-7.88-.21-10.83-.06-2.95-.1-5.37-.14-7.26s-.05-3.36-.05-4.42c0-1.06,0-1.79,0-2.2.01-.41.03-.63.07-.67.38-.78,1.12-1.36,2.22-1.75,1.09-.39,2.27-.59,3.54-.62,1.3-.02,2.51.15,3.62.51,1.11.37,1.84.91,2.18,1.64.04.08.07.39.1.91.03.53.05,1.44.08,2.75.02,1.3.06,3.17.11,5.61l.17,8.85,9.92-.19-.22-11.65c-.04-1.99-.07-3.68-.1-5.06-.03-1.38-.04-2.52-.03-3.42,0-.9,0-1.61.01-2.14.01-.53.03-.92.06-1.16.03-.24.08-.42.15-.52.07-.1.14-.2.21-.28.03-.04.07-.08.1-.12.57-.54,1.32-.95,2.26-1.23.94-.28,1.93-.43,2.98-.45,1.3-.02,2.51.15,3.62.51,1.11.37,1.85.91,2.23,1.64.04.24.11,2.18.22,5.82.1,3.64.22,8.25.34,13.82.12,5.57.24,11.16.34,16.78.12,6.51.22,12.19.27,17.05.05,4.86.05,7.48-.01,7.84-.49.86-1.37,1.46-2.63,1.79-1.26.33-2.43.5-3.52.52Z"/>
  <path class="st1" d="M320.85,107.38c-1.4.14-2.38.15-2.94.02-.57-.26-1.03-.77-1.39-1.55-.35-.78-.58-1.67-.68-2.66-.15-1.46.03-2.88.54-4.25.18-.4.4-.75.68-1.06.27-.31.49-.47.63-.49,3.66-.43,6.18-1.2,7.56-2.3,1.37-1.1,1.98-2.45,1.81-4.07-.15-1.49-.79-3.18-1.91-5.08-1.12-1.9-2.43-3.91-3.92-6.05-1.24-1.79-2.46-3.64-3.65-5.56-1.2-1.92-2.23-3.86-3.09-5.83-.85-1.97-1.38-3.95-1.59-5.94-.18-1.74-.02-3.48.5-5.21.51-1.73,1.48-3.41,2.92-5.03,1.33-1.49,2.92-2.64,4.74-3.47,1.82-.83,3.71-1.34,5.65-1.54,3.7-.38,7.12.33,10.25,2.11.39.28.61.66.66,1.16.11,1.02-.3,2.27-1.22,3.73-.92,1.46-1.89,2.51-2.92,3.15-.41.23-.82.43-1.22.59-.4.17-.66.25-.77.27-.04,0-.11-.02-.22-.07-.34-.15-.86-.33-1.56-.53-.69-.19-1.45-.25-2.28-.17-1.01.1-1.73.51-2.16,1.23-.44.72-.61,1.51-.52,2.38.15,1.43.78,3.16,1.89,5.18,1.12,2.02,2.42,4.21,3.89,6.57,1.3,2.03,2.57,4.13,3.81,6.28,1.24,2.15,2.32,4.32,3.23,6.5.92,2.18,1.48,4.3,1.69,6.35.21,2.02-.03,3.94-.72,5.75-.69,1.81-2,3.45-3.94,4.9-1.94,1.45-4.64,2.69-8.1,3.7-.67.19-1.54.38-2.61.57-1.07.19-2.09.33-3.06.43Z"/>
  <path class="st1" d="M44.43,180.72c-.5,0-1.03-.24-1.58-.73-.51-.45-1.16-.76-1.96-.92-.8-.16-1.68-.28-2.64-.37-1.14-.04-2.22-.19-3.23-.46-1.01-.27-1.74-.82-2.2-1.68-.09-.49-.16-3.65-.21-9.5-.05-5.84-.07-12.33-.07-19.45s.01-13.6.04-19.42c.02-5.82.08-8.94.17-9.34.14-.24.38-.5.72-.76.34-.26.75-.48,1.2-.64.37-.16.63-.35.79-.55.16-.2.28-.43.38-.67.14-.33.36-.63.65-.92.3-.28.9-.49,1.82-.61,1.28-.16,2.54-.24,3.78-.24,5.04,0,9.83,1.32,14.36,3.97,5.18,3.18,9,7.29,11.48,12.34,2.47,5.05,3.71,10.34,3.71,15.88,0,5.13-1,10.1-2.99,14.9-1.99,4.81-4.91,8.91-8.76,12.31-3.85,3.4-8.54,5.63-14.09,6.69-.09,0-.16.02-.21.06-.41.08-.8.12-1.17.12ZM47.66,165.45s.09-.02.14-.06c.09-.04.24-.13.45-.27.21-.14.52-.4.93-.76,2.56-2.16,4.47-4.78,5.7-7.88,1.24-3.09,1.85-6.27,1.85-9.53,0-3.75-.77-7.24-2.3-10.47-1.54-3.24-3.79-5.65-6.77-7.24-.05-.04-.08.19-.1.7-.03.51-.04,1.46-.04,2.84l.14,32.68Z"/>
  <path class="st1" d="M314.36,179c-.5.03-1.04-.18-1.62-.63-.53-.42-1.21-.68-2.02-.79s-1.7-.17-2.66-.19c-1.14.03-2.23-.05-3.25-.24-1.02-.2-1.79-.71-2.31-1.53-.12-.48-.4-3.63-.83-9.46-.43-5.83-.88-12.3-1.35-19.4-.47-7.11-.89-13.57-1.25-19.38-.36-5.81-.51-8.92-.45-9.33.12-.25.34-.52.67-.81.33-.29.71-.53,1.16-.72.35-.19.6-.39.75-.6.15-.21.26-.45.33-.69.12-.33.31-.65.59-.96.28-.3.87-.55,1.78-.73,1.27-.25,2.52-.41,3.75-.49,5.03-.33,9.9.67,14.59,3.01,5.38,2.83,9.46,6.68,12.27,11.55,2.8,4.87,4.38,10.08,4.75,15.6.34,5.12-.33,10.14-2,15.07-1.67,4.93-4.31,9.21-7.93,12.86-3.62,3.65-8.15,6.18-13.61,7.6-.09,0-.16.03-.2.07-.41.11-.79.17-1.16.2ZM316.58,163.55s.09-.03.13-.07c.09-.05.23-.15.43-.3.2-.16.49-.43.88-.82,2.42-2.32,4.14-5.07,5.17-8.24,1.03-3.17,1.44-6.38,1.22-9.63-.25-3.74-1.24-7.17-2.99-10.3-1.75-3.13-4.16-5.39-7.23-6.77-.05-.04-.07.2-.06.71,0,.51.06,1.46.15,2.84l2.29,32.6Z"/>
  <path class="st1" d="M228.55,178.55c-.5-.01-1.02-.27-1.56-.78-.49-.46-1.14-.79-1.93-.97s-1.67-.33-2.63-.44c-1.14-.07-2.22-.26-3.22-.55-1-.3-1.72-.88-2.15-1.75-.08-.49-.05-3.66.07-9.5.12-5.84.29-12.32.5-19.45.21-7.12.41-13.59.6-19.41.19-5.82.34-8.93.44-9.33.14-.24.39-.49.74-.74.35-.25.76-.46,1.22-.61.37-.15.64-.33.81-.53.17-.2.3-.42.4-.66.15-.32.37-.62.68-.9.31-.27.92-.46,1.84-.56,1.29-.13,2.55-.17,3.78-.13,5.04.15,9.79,1.61,14.24,4.39,5.08,3.33,8.79,7.55,11.11,12.67,2.33,5.12,3.41,10.45,3.25,15.98-.15,5.13-1.29,10.07-3.42,14.81-2.13,4.75-5.17,8.76-9.12,12.05-3.94,3.29-8.7,5.38-14.27,6.27-.09,0-.16.02-.21.06-.41.07-.8.1-1.17.09ZM232.22,163.38s.09-.02.14-.06c.09-.04.25-.12.46-.26.21-.14.53-.38.95-.74,2.63-2.08,4.6-4.65,5.93-7.71,1.33-3.06,2.04-6.21,2.13-9.47.11-3.74-.56-7.26-2-10.54-1.44-3.28-3.63-5.76-6.56-7.43-.04-.04-.08.19-.12.7-.04.51-.08,1.46-.12,2.84l-.81,32.67Z"/>
  <path class="st1" d="M84.46,178.84c-1.15,0-2.27-.1-3.37-.29-1.1-.19-1.99-.5-2.67-.91-.3-.26-.53-1.57-.7-3.95-.17-2.38-.28-5.32-.35-8.82-.06-3.5-.1-7-.1-10.51,0-3.18.02-6.05.06-8.6.04-2.55.13-4.34.25-5.37.17-.83.91-1.44,2.23-1.81,1.31-.37,2.8-.55,4.45-.55s3.24.17,4.64.51c1.4.34,2.2.83,2.42,1.47v.1c0,.67.03,3.07.1,7.18.06,4.11.09,8.53.09,13.25,0,4.3-.05,8.14-.16,11.49-.11,3.36-.29,5.21-.54,5.57-.63.42-1.53.73-2.67.94-1.14.21-2.37.31-3.69.31ZM84.21,135.23c-2.29,0-4.28-.4-5.98-1.21-.3-.19-.52-.66-.67-1.4-.15-.74-.22-1.54-.22-2.41s.07-1.73.22-2.48c.15-.75.39-1.24.73-1.47,1.69-.77,3.75-1.16,6.16-1.16,1.78,0,3.39.22,4.83.67.76.32,1.31.93,1.65,1.83.34.9.51,1.85.51,2.84,0,.84-.09,1.59-.28,2.26-.19.68-.46,1.13-.79,1.35-1.7.77-3.75,1.16-6.16,1.16Z"/>
  <path class="st1" d="M116.17,179.28c-3.69,0-7.25-1.27-10.68-3.8-3.43-2.53-5.93-6.44-7.5-11.73-.93-3.52-1.4-7.82-1.4-12.89,0-3.04.19-6.11.57-9.22s.99-5.98,1.84-8.63c1.99-5.64,5.23-10.09,9.72-13.35,1.61-1.1,3.21-1.87,4.8-2.31,1.59-.44,3.08-.66,4.48-.66,1.99,0,3.72.27,5.18.83,1.46.55,2.47,1.11,3.02,1.69.38.4.57.95.57,1.65,0,1.63-.73,3.56-2.19,5.78-1.46,2.23-2.83,3.73-4.1,4.53-.25.13-.51.2-.76.2-.3,0-.59-.04-.89-.13-.3-.04-.62-.07-.95-.07-.3,0-.59.07-.89.2-1.95,1.1-3.39,2.78-4.32,5.02-.93,2.25-1.52,4.7-1.78,7.37-.25,2.67-.38,5.14-.38,7.44,0,4.27.52,7.68,1.56,10.21,1.04,2.53,2.15,3.8,3.34,3.8.93,0,1.79-.9,2.58-2.71.78-1.81,1.3-4.69,1.56-8.66h-2.73c-1.06,0-1.84-.77-2.35-2.31s-.76-3.24-.76-5.09c0-1.5.18-2.89.54-4.16.36-1.28.9-2.14,1.62-2.58.17-.09.75-.15,1.75-.2.99-.04,2.19-.08,3.59-.1,1.4-.02,2.77-.03,4.13-.03s2.46,0,3.43.03,1.55.08,1.72.17c.89.53,1.62,2.05,2.19,4.56.57,2.51.86,5.49.86,8.92,0,3.83-.49,7.75-1.46,11.73-.97,3.99-2.65,7.3-5.02,9.95-3.14,3.04-6.76,4.56-10.87,4.56Z"/>
  <path class="st1" d="M141.96,176.87c-1.33-.38-2.19-.93-2.57-1.68v-2.3c0-2.24.01-5.54.03-9.91.02-4.37.05-8.86.09-13.47s.08-8.55.13-11.82c.04-3.27.08-5.05.13-5.35.21-.59,1.17-1.19,2.86-1.79,1.7-.6,3.57-1.1,5.63-1.51,2.06-.41,3.61-.62,4.67-.62.38,0,.66.04.83.11.21.15,1.48,1.56,3.81,4.23,2.33,2.67,5.08,5.83,8.26,9.49,3.18,3.66,6.12,7.05,8.83,10.19.04-5.53.08-10.38.13-14.56.04-4.18.08-6.4.13-6.66.21-.71,1.02-1.26,2.42-1.65,1.4-.39,2.92-.59,4.57-.59s3.14.22,4.45.64c1.31.43,2.06,1.11,2.22,2.04.17,1.79.28,5.06.32,9.8.04,4.74.06,9.6.06,14.56l-.06,16.35c0,.82-.69,1.42-2.06,1.79-1.38.37-2.89.56-4.55.56-1.44,0-2.82-.12-4.13-.36-1.31-.24-2.25-.55-2.8-.92l-1.84-2.35c-1.35-1.72-3.11-3.95-5.28-6.69-2.16-2.74-4.36-5.51-6.61-8.29-2.25-2.78-4.2-5.14-5.88-7.09-1.67-1.94-2.64-2.91-2.89-2.91h-.06v.11c0,.45.02,1.85.06,4.2.08,2.73.16,5.95.22,9.66.06,3.72.1,6.99.1,9.83s-.06,4.74-.19,5.38c-.34.71-1.15,1.24-2.45,1.6-1.29.35-2.7.53-4.23.53s-3.02-.19-4.35-.56Z"/>
  <path class="st1" d="M202.5,178.84c-1.15,0-2.27-.1-3.37-.29-1.1-.19-1.99-.5-2.67-.91-.3-.26-.53-1.57-.7-3.95-.17-2.38-.28-5.32-.35-8.82-.06-3.5-.1-7-.1-10.51,0-3.18.02-6.05.06-8.6.04-2.55.13-4.34.25-5.37.17-.83.91-1.44,2.22-1.81,1.31-.37,2.8-.55,4.45-.55s3.24.17,4.64.51c1.4.34,2.2.83,2.42,1.47v.1c0,.67.03,3.07.1,7.18.06,4.11.09,8.53.09,13.25,0,4.3-.05,8.14-.16,11.49-.11,3.36-.29,5.21-.54,5.57-.64.42-1.53.73-2.67.94-1.14.21-2.37.31-3.69.31ZM202.24,135.23c-2.29,0-4.28-.4-5.98-1.21-.3-.19-.52-.66-.67-1.4-.15-.74-.22-1.54-.22-2.41s.07-1.73.22-2.48c.15-.75.39-1.24.73-1.47,1.69-.77,3.75-1.16,6.16-1.16,1.78,0,3.39.22,4.83.67.76.32,1.31.93,1.65,1.83.34.9.51,1.85.51,2.84,0,.84-.09,1.59-.28,2.26-.19.68-.46,1.13-.8,1.35-1.7.77-3.75,1.16-6.16,1.16Z"/>
  <path class="st1" d="M265.59,171.9c-.6,0-1.11-.02-1.56-.06-.45-.04-.73-.07-.86-.11-.81-.15-1.71-.38-2.7-.7-.99-.32-1.88-.72-2.67-1.2-.78-.49-1.18-1.01-1.18-1.57,0-.15.56-2.66,1.69-7.53,1.12-4.87,2.41-10.42,3.88-16.63,1.46-6.22,2.78-11.7,3.94-16.44,1.17-4.74,1.83-7.28,2-7.62.47-.41,1.05-.69,1.75-.84.7-.15,1.45-.22,2.26-.22,1.14,0,2.2.07,3.18.22.59.07,1.04.11,1.34.11l1.84-.06c.59,0,1.18.05,1.75.14.57.1,1.03.29,1.37.59.21.34,1.15,2.62,2.83,6.86,1.67,4.24,3.58,9.11,5.72,14.62,2.14,5.51,4.05,10.42,5.72,14.73,1.67,4.31,2.51,6.51,2.51,6.58,0,1.16-1.2,2.23-3.59,3.22-2.39.99-4.57,1.49-6.51,1.49-1.15,0-2.03-.23-2.67-.67-.17-.15-.38-.52-.64-1.12-.25-.6-.66-1.57-1.21-2.91-.3-.79-.66-1.74-1.08-2.86h-9.98c-.51,2.17-.93,3.92-1.27,5.27-.25,1.23-.47,2.2-.64,2.91-.17.71-.31,1.25-.41,1.62-.11.37-.19.64-.25.79s-.14.26-.22.34c-.47.41-1.1.69-1.9.84-.81.15-1.61.22-2.42.22ZM278.7,147.65c-.04-.37-.14-1.1-.28-2.19-.15-1.1-.31-2.37-.48-3.83-.17-1.34-.25-2.2-.44-3.66-.5-3.65-.71-4.27-.75-4.51,0,0-.38,2.9-.44,3.69s-.13,1.77-.19,2.92c-.06,1.16-.14,2.29-.22,3.38-.13,1.7-.21,2.86-.25,3.47l-.06.37c0,.13.05.22.16.28s.33.09.67.09h2.3Z"/>
</svg>